# xmcd
#
# Track frame offsets: 
#        150
#        22607
#        40375
#        59507
#        77375
#        97882
#        115982
#        128122
#        149555
#        165785
#        183777
#        202767
#
# Disc length: 2933 seconds
#
# Revision: 3
# Processed by: cddbd v1.5.2PL0 Copyright (c) Steve Scherf et al.
# Submitted via: ExactAudioCopy v1.0b4
#
DISCID=8a0b730c
DTITLE=斉藤由貴 - CD-BOX1 DISC 3 「チャイム」plus
DYEAR=2003
DGENRE=JPop
TTITLE0=予感
TTITLE1=悲しみよこんにちは
TTITLE2=ストローハットの夏想い
TTITLE3=つけなかった嘘
TTITLE4=いちご水のグラス
TTITLE5=水の春
TTITLE6=自転車に乗って
TTITLE7=アクリル色の微笑
TTITLE8=SORAMIMI
TTITLE9=あなたの声を聞いた夜
TTITLE10=指輪物語
TTITLE11=青空のかけら（Album Version）
EXTD=
EXTT0=
EXTT1=
EXTT2=
EXTT3=
EXTT4=
EXTT5=
EXTT6=
EXTT7=
EXTT8=
EXTT9=
EXTT10=
EXTT11=
PLAYORDER=
